<?xml version="1.0" ?><svg enable-background="new -208.186 97.078 481.563 377.558" id="Layer_1" version="1.1" viewBox="-208.186 97.078 481.563 377.558" xml:space="preserve" xmlns="http://www.w3.org/2000/svg" xmlns:xlink="http://www.w3.org/1999/xlink"><g id="Layer_1_1_"/><g><path d="M271.942,258.756c0.081-4.297,0.004-8.686-0.62-13.142c-0.777-5.546-2.377-10.534-3.924-15.357   c-0.283-0.884-0.566-1.766-0.843-2.649c-2.088-6.671-4.183-12.123-6.596-17.159c-2.5-5.215-5.401-10.398-8.867-15.847   c-0.683-1.072-1.355-2.155-2.031-3.241c-2.403-3.862-4.889-7.856-7.928-11.738c-0.063-0.081-0.127-0.16-0.192-0.238   c-5.386-6.463-11.199-11.627-16.82-16.621l-0.154-0.136c-6.107-5.427-12.535-10.318-18.08-14.477   c-0.063-0.046-0.125-0.092-0.188-0.137c-1.224-0.874-2.433-1.756-3.637-2.635c-3.606-2.632-7.336-5.353-11.337-7.778   c-4.591-2.782-9.529-5.486-16.015-8.768c-4.993-2.526-10.418-5.001-16.583-7.566c-4.344-1.807-8.688-3.223-12.891-4.592   c-1.421-0.463-2.842-0.926-4.258-1.403c-5.011-1.689-10.981-3.646-17.269-5.343l-0.099-0.026   c-5.602-1.513-11.394-3.077-17.353-4.358c-6.305-1.354-12.054-2.471-17.576-3.414c-0.037-0.006-0.075-0.013-0.112-0.019   c-5.217-0.83-10.895-1.599-17.868-2.42c-4.175-0.492-8.297-0.743-12.282-0.985c-1.906-0.116-3.812-0.231-5.716-0.374   c-1.313-0.098-2.625-0.202-3.936-0.306c-4.577-0.362-9.309-0.736-14.096-0.877c-5.084-0.15-10.113-0.044-14.976,0.059l-3.121,0.063   c-1.986,0.037-3.968,0.03-6.067,0.021c-3.904-0.016-7.94-0.03-12.077,0.262c-4.931,0.349-9.749,0.983-14.409,1.596   c-1.22,0.16-2.44,0.321-3.658,0.476c-1.669,0.212-3.342,0.403-5.012,0.594c-4.244,0.486-8.631,0.988-13.059,1.823   c-5.538,1.043-11.814,2.225-17.898,3.783c-4.085,1.045-7.845,2.456-11.481,3.82c-2.037,0.764-3.96,1.486-5.869,2.118   c-1.811,0.599-3.657,1.15-5.613,1.734c-3.851,1.149-7.832,2.337-11.841,3.999c-5.592,2.319-11.22,4.916-16.728,7.716   c-4.841,2.462-10.549,5.445-16.172,8.903c-3.738,2.298-7.041,4.893-10.234,7.403c-1.596,1.254-3.103,2.438-4.631,3.562   c-5.638,4.146-10.225,7.788-14.437,11.464c-1.371,1.197-2.804,2.373-4.32,3.617c-2.807,2.303-5.699,4.675-8.5,7.434   c-2.861,1.748-5.181,4.078-6.812,6.845c-1.165,1.422-2.358,2.83-3.611,4.309c-2.927,3.454-5.953,7.025-8.705,10.921   c-4.482,6.344-8.136,12.182-11.171,17.847c-3.523,6.575-5.848,13.555-7.927,20.143c-2.354,7.459-3.752,14.526-4.277,21.61   c-0.434,5.9-0.313,12.188,0.371,19.223c0.688,7.088,1.781,13.29,3.345,18.959c1.907,6.913,4.64,13.199,6.809,17.903   c2.414,5.237,5.15,11.174,8.831,16.826c2.963,4.55,6.37,8.517,9.665,12.354c0.68,0.791,1.36,1.583,2.035,2.379   c1.038,1.224,2.052,2.475,3.07,3.729c2.792,3.439,5.678,6.996,9.193,10.333c4.162,3.949,8.608,7.43,12.907,10.795l1.341,1.05   c3.845,3.017,7.833,5.585,11.69,8.07c1.172,0.755,2.345,1.511,3.509,2.276c4.852,3.193,9.979,6.279,15.758,9.481   c5.183,2.871,10.543,5.839,16.101,8.415c1.628,0.755,3.236,1.536,4.837,2.313c3.267,1.586,6.63,3.218,10.155,4.644   c2.034,1.504,4.306,2.449,6.643,2.759c1.536,0.397,2.945,0.804,4.425,1.229c1.192,0.343,2.411,0.693,3.727,1.049   c1.158,1.025,2.893,2.227,5.237,2.727c4.355,1.332,8.738,2.412,12.984,3.458c1.067,0.263,2.135,0.525,3.206,0.794   c2.774,0.692,5.563,1.35,8.351,2.006c2.7,0.636,5.4,1.271,8.084,1.941c3.562,0.891,7.187,1.969,10.76,3.073   c-0.146,1.22-0.286,2.563-0.286,3.961c0,0.51,0.039,1.018,0.116,1.521c0.773,5.02,0.952,10.378,0.564,16.86   c-0.1,1.656-0.243,3.337-0.387,5.034c-0.405,4.766-0.863,10.168-0.44,15.67c0.366,4.757,4.042,8.594,8.778,9.162   c4.851,0.582,9.822,0.869,14.628,1.146c1.75,0.102,3.49,0.202,5.208,0.316c4.369,0.289,8.701,0.353,12.89,0.414   c2.165,0.031,4.331,0.063,6.494,0.127c2.634,0.077,5.293,0.27,8.108,0.473c3.595,0.26,7.312,0.527,11.121,0.556   c3.579,0.029,7.029-0.127,10.357-0.276c2.95-0.131,5.736-0.256,8.523-0.256c5.522,0,10-4.478,10-10   c0-5.3,0.069-11.031,0.568-17.025c0.451-5.396,1.307-10.796,2.3-16.767c0.204-0.856,0.367-1.672,0.513-2.403   c0.014-0.064,0.026-0.131,0.04-0.199c2.509-0.47,4.971-0.969,7.371-1.455c2.226-0.45,4.437-0.898,6.646-1.315   c2.186-0.412,4.361-0.769,6.665-1.146c3.251-0.532,6.612-1.083,9.989-1.804c3.815-0.814,7.591-1.749,11.268-2.678   c0.103,0.118,0.207,0.238,0.312,0.36c0.891,1.03,1.888,2.185,3.064,3.391c4.45,5.467,7.847,10.316,10.669,15.23   c1.085,1.889,2.126,3.823,3.229,5.87c2.111,3.923,4.292,7.974,6.988,12.087c0.639,1.345,1.124,2.645,1.678,4.124   c0.525,1.407,1.104,2.953,1.862,4.653c-0.068,6.452,4.138,9.475,6.102,10.531c1.357,0.729,2.865,1.137,4.405,1.188   c3.521,0.119,7.006,0.013,10.375-0.089c2.749-0.083,5.343-0.162,7.849-0.12c2.273,0.036,4.525,0.116,6.911,0.201   c3.244,0.115,6.587,0.233,9.972,0.233c0.398,0,0.798-0.002,1.197-0.005c3.874-0.034,7.641-0.3,11.283-0.557   c2.376-0.168,4.62-0.326,6.859-0.421c5.789-0.247,11.963-0.532,18.208-1.064c5.898-0.503,11.808-1.167,18.065-2.03   c3.193-0.44,5.978-2.393,7.48-5.244c1.503-2.851,1.539-6.252,0.098-9.134c-0.488-0.978-1.018-2.059-1.548-3.14   c-0.554-1.133-1.108-2.265-1.62-3.287c-0.168-0.337-0.355-0.663-0.56-0.979c-1.289-1.983-2.542-3.95-3.781-5.896   c-1.775-2.788-3.611-5.672-5.471-8.467c-1.909-2.869-3.784-5.713-5.649-8.541c-1.238-1.878-2.472-3.748-3.709-5.617   c-1.326-2.001-2.686-3.979-4.047-5.959c-1.882-2.735-3.659-5.319-5.366-7.993c-1.524-2.385-2.949-4.966-4.458-7.699   c-1.118-2.023-2.271-4.11-3.522-6.224c-1.301-2.945-2.74-5.613-4.135-8.198c-0.649-1.203-1.287-2.385-1.881-3.544   c2.727-1.922,5.369-3.881,7.839-5.813c4.614-3.611,9.173-7.544,13.55-11.688c4.724-4.472,8.797-8.724,12.453-12.998l1.153-1.345   c3.455-4.025,7.028-8.188,10.16-12.903c3.444-5.189,6.102-10.618,8.745-16.188c3.187-6.715,5.274-12.063,6.77-17.343   c1.788-6.311,2.455-12.624,2.985-18.555l0.065-0.739c0.359-4.019,0.754-8.432,0.662-13.064c1.29-1.721,1.999-3.823,1.999-5.999   C273.377,262.147,272.87,260.332,271.942,258.756z M251.844,262.05c-0.575,1.501-0.72,2.907-0.72,3.942   c0,0.354,0.019,0.707,0.057,1.058c0.481,4.532,0.061,9.246-0.385,14.236l-0.066,0.744c-0.464,5.187-0.989,10.228-2.307,14.878   c-1.181,4.166-2.906,8.552-5.596,14.221c-2.408,5.075-4.623,9.608-7.339,13.7c-2.448,3.687-5.473,7.209-8.674,10.938l-1.176,1.371   c-3.196,3.737-6.796,7.49-11.005,11.476c-3.924,3.715-8.004,7.234-12.123,10.459c-4.059,3.174-8.654,6.441-13.293,9.449   c-3.687,2.392-5.38,6.911-4.173,11.137c1.503,5.259,3.905,9.713,6.229,14.02c1.344,2.49,2.613,4.843,3.63,7.216   c0.178,0.416,0.385,0.818,0.617,1.207c1.2,1.998,2.318,4.024,3.503,6.17c1.595,2.889,3.244,5.875,5.111,8.797   c1.89,2.96,3.849,5.809,5.743,8.563c1.296,1.885,2.591,3.766,3.852,5.668c1.229,1.855,2.455,3.716,3.687,5.583   c1.88,2.851,3.771,5.719,5.695,8.611c1.507,2.266,2.98,4.565,4.514,6.971c-0.743,0.069-1.484,0.135-2.227,0.198   c-5.854,0.499-11.786,0.772-17.359,1.01c-2.517,0.107-5.007,0.283-7.415,0.452c-3.494,0.247-6.795,0.479-10.053,0.508   c-3.345,0.028-6.719-0.089-10.285-0.216c-2.374-0.085-4.829-0.172-7.294-0.212c-0.58-0.009-1.159-0.014-1.737-0.014   c-2.381,0-4.742,0.071-7.04,0.141c-0.702,0.021-1.396,0.042-2.081,0.062c-0.476-1.08-0.879-2.159-1.326-3.355   c-0.717-1.918-1.528-4.091-2.766-6.564c-0.186-0.371-0.394-0.729-0.623-1.073c-2.351-3.529-4.318-7.183-6.401-11.052   c-1.117-2.075-2.272-4.222-3.493-6.349c-3.445-5.998-7.521-11.811-12.827-18.294c-0.21-0.257-0.433-0.503-0.667-0.738   c-0.827-0.827-1.614-1.738-2.448-2.703c-1.868-2.163-3.985-4.614-7.032-6.646c-2.345-1.563-5.24-2.064-7.974-1.381   c-1.194,0.299-2.388,0.602-3.581,0.903c-4.238,1.073-8.241,2.088-12.303,2.955c-2.907,0.62-5.889,1.108-9.045,1.625   c-2.321,0.38-4.721,0.772-7.144,1.229c-2.294,0.434-4.593,0.898-6.906,1.367c-1.64,0.332-3.31,0.67-4.985,0.997   c-2.386-0.894-5.058-0.869-7.456,0.092c-0.813,0.326-1.581,0.758-2.283,1.284c-6.276,4.707-7.561,11.124-8.327,14.958   c-0.127,0.635-0.251,1.271-0.407,1.897c-0.064,0.259-0.119,0.52-0.163,0.782c-1.052,6.314-2.039,12.499-2.563,18.751   c-0.256,3.073-0.411,6.093-0.504,8.986c-3.047,0.136-5.933,0.261-8.867,0.235c-3.162-0.022-6.4-0.257-9.829-0.504   c-2.9-0.209-5.898-0.426-8.959-0.517c-2.263-0.066-4.527-0.1-6.791-0.133c-4.117-0.06-8.005-0.117-11.857-0.372   c-1.773-0.118-3.572-0.223-5.38-0.327c-1.495-0.086-3.007-0.173-4.516-0.27c0.093-1.326,0.208-2.677,0.325-4.051   c0.153-1.803,0.312-3.667,0.423-5.529c0.451-7.529,0.256-13.95-0.614-20.104c0.041-0.461,0.115-1.066,0.178-1.585   c0.473-3.873,1.728-14.162-7.568-18.81c-0.479-0.239-0.978-0.44-1.489-0.601l-1.315-0.411c-4.983-1.56-10.135-3.173-15.46-4.505   c-2.774-0.692-5.563-1.35-8.351-2.006c-2.7-0.636-5.4-1.271-8.083-1.941c-1.091-0.272-2.182-0.542-3.272-0.811   c-3.762-0.927-7.345-1.809-10.819-2.833c-1.219-1.106-3.127-2.465-5.769-2.923c-1.608-0.413-3.071-0.834-4.61-1.277   c-1.698-0.488-3.45-0.993-5.46-1.503c-0.742-0.553-1.558-1.001-2.427-1.33c-3.285-1.246-6.613-2.861-10.137-4.572   c-1.706-0.827-3.421-1.659-5.157-2.464c-4.907-2.275-9.724-4.942-14.902-7.811c-5.248-2.907-9.949-5.736-14.375-8.649   c-1.218-0.801-2.444-1.591-3.671-2.382c-3.633-2.34-7.064-4.551-10.178-6.993l-1.358-1.063c-4.112-3.218-7.996-6.258-11.466-9.552   c-2.572-2.441-4.933-5.351-7.432-8.43c-1.108-1.365-2.214-2.727-3.344-4.06c-0.703-0.829-1.411-1.653-2.118-2.477   c-3.002-3.496-5.838-6.798-8.077-10.235c-2.887-4.434-5.195-9.442-7.428-14.285c-1.85-4.015-4.169-9.33-5.691-14.85   c-1.254-4.547-2.144-9.641-2.719-15.573c-0.58-5.975-0.686-11.004-0.332-15.819c0.409-5.516,1.522-11.098,3.404-17.063   c1.869-5.921,3.771-11.655,6.483-16.716c2.643-4.933,5.874-10.085,9.877-15.752c2.245-3.178,4.86-6.265,7.629-9.532   c1.458-1.721,2.966-3.5,4.445-5.328c0.417-0.515,0.781-1.069,1.087-1.655c0.047-0.03,0.117-0.071,0.215-0.12   c1.007-0.504,1.922-1.174,2.707-1.982c2.338-2.411,5.037-4.625,7.895-6.971c1.566-1.285,3.186-2.613,4.787-4.011   c3.781-3.301,7.955-6.611,13.131-10.417c1.786-1.313,3.492-2.654,5.142-3.95c2.875-2.26,5.592-4.395,8.351-6.091   c5.018-3.084,10.279-5.833,14.764-8.113c5.05-2.568,10.206-4.946,15.323-7.068c3.055-1.267,6.38-2.259,9.901-3.31   c2.009-0.6,4.086-1.219,6.176-1.912c2.282-0.755,4.482-1.581,6.61-2.379c3.281-1.231,6.379-2.394,9.416-3.17   c5.46-1.399,11.144-2.469,16.642-3.504c3.718-0.701,7.562-1.141,11.63-1.606c1.752-0.201,3.506-0.402,5.258-0.624   c1.248-0.159,2.497-0.323,3.746-0.487c4.568-0.601,8.882-1.168,13.211-1.475c3.393-0.24,6.888-0.226,10.59-0.212   c2.118,0.009,4.308,0.017,6.519-0.025l3.168-0.064c4.826-0.102,9.386-0.199,13.963-0.063c4.293,0.126,8.575,0.465,13.108,0.824   c1.34,0.106,2.68,0.211,4.02,0.312c1.997,0.149,3.996,0.271,5.995,0.393c3.879,0.235,7.542,0.458,11.155,0.884   c6.677,0.787,12.086,1.518,17.017,2.301c5.222,0.893,10.679,1.953,16.679,3.242c5.449,1.171,10.985,2.667,16.339,4.113l0.101,0.027   c5.765,1.557,11.37,3.394,16.095,4.987c1.479,0.499,2.964,0.983,4.449,1.467c4.008,1.306,7.793,2.54,11.404,4.042   c5.705,2.373,10.689,4.645,15.235,6.945c6.014,3.043,10.541,5.519,14.679,8.026c3.269,1.982,6.497,4.337,9.914,6.831   c1.228,0.895,2.46,1.794,3.705,2.685c5.203,3.903,11.202,8.47,16.705,13.359l0.154,0.137c5.264,4.677,10.238,9.096,14.641,14.354   c2.337,3.003,4.409,6.333,6.602,9.856c0.711,1.143,1.42,2.283,2.138,3.411c3.035,4.769,5.557,9.27,7.707,13.755   c1.987,4.148,3.749,8.752,5.544,14.488c0.29,0.928,0.588,1.855,0.885,2.783c1.349,4.206,2.623,8.178,3.162,12.023   C252.104,252.593,252.007,257.19,251.844,262.05z"/><path d="M239.365,259.643c-0.85-6.687-2.024-14.591-4.291-22.521c-2.156-7.549-5.804-12.917-9.33-18.108   c-0.535-0.789-1.081-1.592-1.668-2.472c-3.801-5.625-7.82-10.568-12.289-15.111c-5.099-5.185-9.918-9.353-14.732-12.739   c-4.971-3.499-10.402-7.146-16.432-10.11c-4.443-2.185-8.922-3.644-13.253-5.055c-1.505-0.49-3.012-0.98-4.51-1.503l-0.746-0.26   c-5.418-1.891-11.021-3.846-16.938-5.354c-5.664-1.444-11.702-2.955-17.784-4.158c-3.685-0.728-7.338-1.267-10.871-1.789   c-2.377-0.351-4.622-0.683-6.866-1.066c-0.556-0.095-1.119-0.143-1.684-0.143c-0.908,0-1.738-0.099-2.79-0.224   c-1.195-0.142-2.647-0.314-4.399-0.354c-4.041-0.542-7.949-0.741-11.734-0.934c-2.031-0.104-3.95-0.202-5.851-0.349   c-1.812-0.14-3.618-0.313-5.422-0.484c-4.146-0.395-8.433-0.803-12.852-0.851l-0.317-0.003c-5.872-0.063-11.947-0.129-18.033,0.213   c-4.158,0.234-8.044,0.909-11.801,1.562c-2.223,0.386-4.322,0.75-6.371,1.005c-2.035,0.253-4.127,0.423-6.343,0.603   c-3.83,0.312-7.79,0.634-11.885,1.425c-4.671,0.902-9.167,2.125-13.515,3.309c-1.422,0.387-2.844,0.774-4.268,1.148   c-4.418,1.161-8.626,2.623-12.696,4.037c-1.563,0.543-3.128,1.087-4.702,1.611c-0.041,0.014-0.081,0.027-0.121,0.042   c-1.63,0.566-3.27,1.098-4.908,1.629c-4.328,1.405-8.804,2.857-13.254,4.935c-5.808,2.709-11.582,5.853-17.16,9.341   c-5.265,3.292-9.875,7.16-14.333,10.901l-1.269,1.064c-4.922,4.118-9.533,8.599-14.095,13.698   c-0.315,0.353-0.605,0.727-0.867,1.121c-1.399,2.099-3.185,4.169-6.162,7.146c-0.424,0.424-0.809,0.886-1.151,1.379   c-4.681,6.762-8.359,14.121-11.247,22.499c-1.809,5.25-3.829,11.897-4.595,19.281c-1.152,1.629-1.829,3.618-1.829,5.766   c0,2.871,1.21,5.459,3.147,7.283c-0.531,2.541-0.852,5.517-0.237,8.762c1.283,7.67,2.705,13.64,4.605,19.341   c0.208,0.625,0.478,1.228,0.804,1.799c4.228,7.398,7.656,13.186,12.718,19.39c1.616,2.793,3.788,5.06,6.482,6.764   c4.309,4.554,8.934,8.327,12.563,11.16c4.992,3.897,10.399,7.044,15.171,9.819c1.221,0.711,2.436,1.44,3.653,2.17   c3.7,2.221,7.527,4.518,11.761,6.479c5.729,2.653,10.914,4.905,15.851,6.884c3.045,1.221,6.095,2.274,9.043,3.293   c2.405,0.831,4.677,1.616,6.883,2.465c1.163,0.447,2.379,0.666,3.588,0.666c2.145,0,4.268-0.69,6.031-2.022   c2.756-2.083,4.242-5.442,3.929-8.884c-0.134-1.469-0.277-2.937-0.419-4.4c-0.388-3.979-0.754-7.736-0.926-11.429   c-0.173-3.723-0.146-7.454-0.118-11.405c0.011-1.47,0.021-2.938,0.021-4.407l-0.002-2.352c-0.006-4.646-0.013-9.035,0.193-13.456   c0.232-4.979,0.515-10.341,1.012-15.802c0.008-0.095,0.016-0.188,0.021-0.283c0.142-2.277,0.307-4.563,0.473-6.856   c0.302-4.187,0.614-8.517,0.796-12.888c0.122-2.938,0.181-5.881,0.237-8.729c0.073-3.702,0.142-7.198,0.339-10.704   c0.373-6.629,1.037-13.343,1.637-19.037c0.63-5.975,1.377-12.359,2.57-18.565c0.673-3.5,1.545-6.925,2.605-10.555   c3.818,0.051,7.437,0.103,11.105,0.282c3.484,0.171,6.944,0.456,10.607,0.757c2.682,0.221,5.456,0.448,8.23,0.627   c3.392,0.218,6.893,0.523,10.278,0.818c2.87,0.25,5.741,0.5,8.616,0.708c3.349,0.242,6.662,0.349,9.866,0.453   c3.176,0.102,6.175,0.199,9.151,0.417c2.587,0.189,5.173,0.395,7.759,0.601c3.688,0.293,7.503,0.597,11.288,0.849   c2.67,0.178,5.316,0.414,8.118,0.663c3.579,0.319,7.28,0.648,11.014,0.845c0.175,0.009,0.351,0.014,0.525,0.014   c1.779,0,3.625,0.089,5.579,0.184c5.751,0.278,12.173,0.589,18.996-1.333c4.313,0.978,8.656,2.515,12.758,4.061   c5.082,1.917,9.399,4.167,13.195,6.878c4.054,2.896,7.388,6.163,10.192,9.987c0.036,0.049,0.073,0.098,0.11,0.146   c3.323,4.363,6.034,9.113,8.056,14.118c2.295,5.685,3.684,10.822,4.246,15.703c0.577,5.015,0.394,10.313-0.561,16.194   c-0.967,5.951-2.469,11.002-4.593,15.441c-0.179,0.374-0.334,0.759-0.466,1.152c-0.879,2.637-1.631,4.544-2.831,6.387   c-3.983,5.454-7.524,9.339-11.134,12.216c-4.131,3.293-9.02,6.191-14.529,8.614c-4.972,2.187-10.484,3.835-16.383,4.898   c-5.528,0.995-11.076,1.369-16.948,1.145c-4.97-0.212-9.331,3.305-10.222,8.201c-0.892,4.896,1.954,9.704,6.676,11.278   c2.931,0.977,6.088,2.08,9.141,3.147c3.12,1.09,6.346,2.218,9.415,3.24c0.138,0.046,0.275,0.089,0.415,0.129   c3.097,0.885,6.073,1.466,8.952,2.028c3.969,0.775,7.716,1.507,11.052,2.937c1.245,0.533,2.585,0.809,3.939,0.809   c0.396,0,0.978,0.028,1.56,0.052c0.89,0.037,1.778,0.069,2.383,0.069c1.741,0,3.452-0.454,4.963-1.318   c4.771-2.728,9.519-5.914,14.512-9.739c4.451-3.407,8.416-7.153,12.25-10.775l0.618-0.583c4.731-4.469,8.507-8.266,11.882-11.947   c0.089-0.098,0.177-0.197,0.263-0.298c3.731-4.411,7.066-9.008,10.292-13.452l0.458-0.632c3.36-4.627,6.894-9.661,9.967-15.11   c0.464-0.823,0.935-1.646,1.406-2.468c2.503-4.367,5.091-8.884,7.033-14.065c0.421-1.123,0.637-2.312,0.637-3.511   c0-0.748-0.054-1.422-0.118-1.998C240.731,274.354,240.179,266.044,239.365,259.643z M218.578,278.636   c-0.385,1.079-0.582,2.216-0.582,3.362c0,0.588,0.033,1.13,0.079,1.614c-1.317,2.982-3.031,5.973-4.825,9.105   c-0.495,0.862-0.988,1.724-1.476,2.588c-2.577,4.57-5.718,9.036-8.729,13.184l-0.462,0.636c-0.473,0.652-0.942,1.299-1.409,1.94   c0.038-0.109,0.075-0.219,0.112-0.328c2.813-6.029,4.783-12.675,6.021-20.292c1.253-7.724,1.479-14.817,0.688-21.687   c-0.771-6.692-2.594-13.53-5.57-20.905c-2.679-6.631-6.257-12.914-10.636-18.674c-4.068-5.533-8.859-10.231-14.645-14.364   c-5.226-3.731-11.035-6.778-17.761-9.315c-5.749-2.167-11.99-4.336-18.671-5.515c-1.761-0.313-3.574-0.145-5.249,0.484   c-4.045,1.516-8.622,1.294-13.925,1.039c-2.019-0.098-4.104-0.199-6.27-0.207c-3.288-0.179-6.571-0.471-10.042-0.78   c-2.787-0.248-5.669-0.505-8.563-0.698c-3.656-0.243-7.405-0.542-11.03-0.83c-2.628-0.209-5.257-0.418-7.886-0.61   c-3.383-0.248-6.729-0.355-9.965-0.46c-3.146-0.102-6.118-0.197-9.068-0.411c-2.777-0.201-5.551-0.443-8.324-0.685   c-3.496-0.304-7.111-0.619-10.729-0.853c-2.598-0.167-5.281-0.387-7.875-0.601c-3.664-0.301-7.452-0.613-11.266-0.8   c-4.131-0.203-8.208-0.257-12.149-0.309c-2.328-0.031-4.659-0.062-7.003-0.124c-4.446-0.126-8.418,2.704-9.78,6.926   c-2.001,6.204-4.041,12.918-5.398,19.979c-1.334,6.939-2.143,13.831-2.819,20.244c-0.625,5.933-1.319,12.951-1.716,20.01   c-0.217,3.87-0.293,7.714-0.367,11.432c-0.057,2.866-0.11,5.574-0.223,8.292c-0.17,4.067-0.471,8.243-0.762,12.282   c-0.167,2.31-0.333,4.611-0.477,6.906c-0.524,5.797-0.819,11.375-1.06,16.543c-0.228,4.898-0.221,9.735-0.215,14.413l0.002,2.324   c0,1.421-0.01,2.842-0.021,4.265c-0.029,4.04-0.059,8.219,0.139,12.477c0.018,0.374,0.037,0.748,0.057,1.122   c-0.257-0.101-0.513-0.201-0.768-0.304c-4.608-1.847-9.478-3.963-14.886-6.468c-3.264-1.512-6.476-3.438-9.875-5.479   c-1.294-0.776-2.587-1.552-3.887-2.308c-4.426-2.574-9.001-5.236-12.92-8.297c-3.517-2.745-7.593-6.083-11.157-10.02   c-0.814-0.899-1.842-1.674-2.924-2.227c-0.001-0.003-0.002-0.005-0.003-0.007c-0.345-0.69-0.769-1.338-1.262-1.931   c-4.197-5.037-7.09-9.836-10.854-16.404c-1.422-4.449-2.535-9.287-3.574-15.52c-0.013-0.076-0.026-0.152-0.041-0.229   c-0.007-0.597,0.421-2.176,0.707-3.229c0.812-2.995,1.923-7.096,0.807-11.562c-0.374-1.493-1.071-2.836-2.007-3.963   c0.732-4.467,2.051-8.693,3.251-12.175c2.181-6.328,4.899-11.874,8.299-16.923c2.454-2.484,5.173-5.43,7.562-8.888   c3.769-4.172,7.564-7.844,11.586-11.208l1.291-1.082c4.113-3.452,7.999-6.712,12.08-9.264c4.89-3.058,9.941-5.809,15.014-8.175   c3.337-1.558,7.045-2.761,10.971-4.035c1.75-0.568,3.502-1.137,5.244-1.742c1.632-0.544,3.255-1.108,4.877-1.671   c3.88-1.348,7.544-2.622,11.214-3.585c1.481-0.389,2.959-0.791,4.438-1.193c4.175-1.137,8.119-2.21,12.055-2.97   c3.02-0.583,6.271-0.848,9.714-1.127c2.327-0.189,4.733-0.385,7.189-0.69c2.527-0.314,4.966-0.738,7.325-1.147   c3.344-0.581,6.502-1.129,9.504-1.298c5.417-0.306,10.894-0.247,16.691-0.183l0.316,0.003c3.578,0.039,7.269,0.39,11.175,0.762   c1.922,0.183,3.848,0.366,5.775,0.515c2.16,0.167,4.302,0.276,6.372,0.382c3.709,0.189,7.213,0.368,10.59,0.85   c0.468,0.067,0.94,0.101,1.414,0.101c0.908,0,1.738,0.099,2.79,0.224c1.158,0.138,2.559,0.304,4.238,0.351   c2.207,0.367,4.405,0.691,6.539,1.007c3.449,0.509,6.708,0.991,9.915,1.624c5.592,1.105,11.1,2.484,16.723,3.917   c5.083,1.295,10.04,3.025,15.288,4.857l0.748,0.261c1.626,0.568,3.265,1.103,4.901,1.636c3.835,1.25,7.457,2.43,10.626,3.988   c4.794,2.356,9.438,5.485,13.745,8.517c3.818,2.687,7.738,6.091,11.983,10.408c3.604,3.663,6.866,7.681,9.941,12.231   c0.585,0.878,1.163,1.729,1.73,2.564c3.117,4.588,5.369,7.904,6.644,12.365c1.898,6.642,2.926,13.609,3.682,19.548   C220.444,269.404,220.171,274.176,218.578,278.636z"/><path d="M62.923,306.264c1.182,1.616,2.803,2.815,4.63,3.485c0.175,0.195,0.357,0.383,0.548,0.564   c1.984,1.888,4.664,2.884,7.392,2.742c6.147-0.308,12.706-0.054,19.048,0.192c2.575,0.101,5.062,0.15,7.475,0.15   c4.836,0,9.375-0.201,13.733-0.606c6.248-0.579,14.476-1.771,22.701-5.885c0.537-0.269,1.049-0.584,1.528-0.944   c5.301-3.976,9.68-9.084,12.329-14.383c0.445-0.892,0.756-1.845,0.92-2.827l0.165-0.977c0.922-5.425,2.363-13.899-2.045-21.421   c-0.077-1.65-0.562-3.258-1.414-4.679c-5.297-8.827-15.058-10.779-20.89-11.945c-0.134-0.027-0.268-0.051-0.402-0.072   c-4.437-0.7-8.707-0.883-12.838-1.06c-2.405-0.103-4.678-0.2-6.884-0.394c-1.826-0.161-3.648-0.349-5.47-0.537   c-4.583-0.472-9.323-0.96-14.215-1.047c-6.101-0.108-13.18-0.194-20.005,0.164c-5.038,0.265-9.09,4.242-9.449,9.274   c-0.41,5.745,0.009,11.453,0.414,16.973c0.151,2.069,0.295,4.023,0.396,5.964c0.32,6.2,0.483,12.742,0.498,19.966   C60.604,302.395,61.948,304.932,62.923,306.264z M88.878,266.618c4.043,0.072,8.162,0.496,12.522,0.945   c1.919,0.198,3.84,0.395,5.765,0.564c2.655,0.234,5.262,0.345,7.783,0.453c3.663,0.157,7.127,0.305,10.383,0.803   c1.513,0.303,3.923,0.799,5.612,1.442c0.398,1.833,1.256,3.437,2.283,4.667c0.191,0.229,0.393,0.449,0.604,0.66   c0.997,0.997,0.473,4.542-0.045,7.618c-1.209,1.965-3,3.949-5.101,5.642c-3.918,1.808-8.529,2.885-14.785,3.465   c-5.654,0.524-11.731,0.65-18.585,0.386c-4.467-0.173-9.032-0.351-13.64-0.351c-0.212,0-0.423,0.001-0.634,0.002   c-0.073-5.254-0.231-10.191-0.479-14.953c-0.111-2.156-0.27-4.311-0.422-6.394c-0.126-1.715-0.25-3.398-0.346-5.042   C82.925,266.52,86.017,266.566,88.878,266.618z"/><path d="M121.396,366.604c-1.768-1.061-4.035-3.396-6.228-5.654c-2.167-2.232-4.408-4.541-7.011-6.623   c-0.551-0.44-1.146-0.821-1.776-1.137c-5.351-2.674-11.333-3.974-17.739-3.996c-2.677,0.008-5.216,0.22-7.673,0.424   c-2.145,0.179-4.17,0.348-5.977,0.348c-0.74,0-1.478,0.082-2.199,0.245c-3.037,0.685-5.485,2.615-6.87,5.14   c-0.326,0.393-0.622,0.809-0.885,1.247c-3.888,6.479-3.42,13.176-3.079,18.064c0.081,1.156,0.157,2.248,0.157,3.12   c0,2.883,1.244,5.625,3.413,7.524c1.834,1.605,4.179,2.476,6.587,2.476c0.439,0,0.881-0.029,1.322-0.088   c4.725-0.63,9.383-0.778,14.315-0.937c2.25-0.071,4.497-0.144,6.755-0.261c6.893-0.356,14.432-0.808,22.408-1.34   c4.361-0.291,8.028-3.381,9.055-7.631C126.998,373.276,125.145,368.853,121.396,366.604z"/></g></svg>